<?xml version="1.0" encoding="UTF-8" standalone="no"?>
<!-- Generator: Adobe Illustrator 19.1.0, SVG Export Plug-In . SVG Version: 6.00 Build 0)  -->

<svg
   xmlns:dc="http://purl.org/dc/elements/1.1/"
   xmlns:cc="http://creativecommons.org/ns#"
   xmlns:rdf="http://www.w3.org/1999/02/22-rdf-syntax-ns#"
   xmlns:svg="http://www.w3.org/2000/svg"
   xmlns="http://www.w3.org/2000/svg"
   xmlns:sodipodi="http://sodipodi.sourceforge.net/DTD/sodipodi-0.dtd"
   xmlns:inkscape="http://www.inkscape.org/namespaces/inkscape"
   version="1.1"
   id="Ebene_1"
   x="0px"
   y="0px"
   viewBox="-412 290.3 16 16"
   style="enable-background:new -412 290.3 16 16;"
   xml:space="preserve"
   inkscape:version="0.91 r13725"
   sodipodi:docname="dbasereader-icon.svg"><metadata
     id="metadata29"><rdf:RDF><cc:Work
         rdf:about=""><dc:format>image/svg+xml</dc:format><dc:type
           rdf:resource="http://purl.org/dc/dcmitype/StillImage" /></cc:Work></rdf:RDF></metadata><defs
     id="defs27" /><sodipodi:namedview
     pagecolor="#ffffff"
     bordercolor="#666666"
     borderopacity="1"
     objecttolerance="10"
     gridtolerance="10"
     guidetolerance="10"
     inkscape:pageopacity="0"
     inkscape:pageshadow="2"
     inkscape:window-width="1764"
     inkscape:window-height="944"
     id="namedview25"
     showgrid="false"
     inkscape:zoom="14.75"
     inkscape:cx="8.1355932"
     inkscape:cy="8"
     inkscape:window-x="0"
     inkscape:window-y="27"
     inkscape:window-maximized="0"
     inkscape:current-layer="Ebene_1" /><style
     type="text/css"
     id="style3">
	.st0{fill:#FFFFFF;}
	.st1{fill:#F1933B;}
</style><g
     id="XMLID_11_"><polygon
       id="XMLID_12_"
       points="-396,304 -399.9,301.8 -399.9,303.5 -405.6,303.5 -405.6,304.5 -399.9,304.5 -399.9,306.3  " /></g><path
     style="fill:#000000;fill-rule:evenodd;stroke:#000000;stroke-width:0;stroke-linecap:butt;stroke-linejoin:miter;stroke-miterlimit:4;stroke-dasharray:none;stroke-opacity:1"
     d="m -408.14986,292.89229 c 0,0 1.01286,0.63663 1.51585,0.94047 0,0 -0.80114,0.46172 -2.21866,1.77967 -1.30682,1.21503 -1.75012,2.11243 -1.75012,2.11243 0,0 -0.7097,-0.77769 -0.97842,-0.95494 -0.0896,-0.0724 -0.0999,-0.41236 0.0551,-0.54981 z"
     id="path4806"
     inkscape:connector-curvature="0"
     sodipodi:nodetypes="ccscccc" /><path
     style="fill:#000000;fill-rule:evenodd;stroke:#000000;stroke-width:0;stroke-linecap:butt;stroke-linejoin:miter;stroke-miterlimit:4;stroke-dasharray:none;stroke-opacity:1"
     d="m -408.63907,297.15335 c -0.26872,0.21702 -0.94396,1.06345 -0.97152,1.35282 -0.0276,0.28938 0.66166,0.65936 1.81234,1.83857 1.15066,1.1792 1.8257,2.01736 2.11509,2.03906 0.28939,0.0217 0.41342,-0.15916 0.53055,-0.28214 0.11715,-0.12299 1.06799,-1.09239 1.06799,-1.09239 0,0 -0.57189,0.49194 -2.21178,-1.26602 -1.63986,-1.75796 -2.34267,-2.5899 -2.34267,-2.5899 z"
     id="path4861"
     inkscape:connector-curvature="0"
     sodipodi:nodetypes="csssscsc" /><path
     style="fill:#000000;fill-rule:evenodd;stroke:#000000;stroke-width:0;stroke-linecap:butt;stroke-linejoin:miter;stroke-miterlimit:4;stroke-dasharray:none;stroke-opacity:1"
     d="m -405.26974,298.99088 c 0,0 1.66745,-1.31666 2.26,-1.90264 0.59256,-0.58599 1.65819,-2.32224 1.65819,-2.32224 0,0 0.43172,0.56574 0.77623,0.81894 0.34451,0.2532 0.84513,0.72549 0.83136,0.98592 -0.0138,0.26044 -1.03334,1.154 -1.8395,1.94978 -0.80616,0.79578 -1.36426,1.48305 -1.86036,1.46135 -0.4961,-0.0217 -0.52366,-0.36172 -0.93019,-0.51365 -0.40652,-0.15192 -0.88194,-0.44853 -0.89573,-0.47746 z"
     id="path4863"
     inkscape:connector-curvature="0"
     sodipodi:nodetypes="cscsssssc" /><path
     style="fill:#000000;fill-rule:evenodd;stroke:#000000;stroke-width:0;stroke-linecap:butt;stroke-linejoin:miter;stroke-miterlimit:4;stroke-dasharray:none;stroke-opacity:1"
     d="m -407.18246,291.85228 c 0,0 0.83802,-1.06402 1.39344,-1.15609 0.55543,-0.0921 1.14983,0.71616 1.83193,1.38117 0.68209,0.66501 1.50063,1.36071 1.50063,1.86203 0,0.50132 -0.90622,1.76996 -0.90622,1.76996 0,0 -0.91598,-1.45279 -1.66628,-2.1485 -0.75031,-0.6957 -2.1535,-1.70857 -2.1535,-1.70857 z"
     id="path4865"
     inkscape:connector-curvature="0"
     sodipodi:nodetypes="cssscsc" /></svg>